
<?xml version="1.0" encoding="UTF-8"?>
<svg id="Camada_2" data-name="Camada 2" xmlns="http://www.w3.org/2000/svg" viewBox="0 0 904.51 692.68">
  <defs>
    <style>
      .cls-1 {
        font-family: Montserrat, sans-serif;
        font-size: 25.36px;
        font-weight: 800;
        letter-spacing: .14em;
        text-transform: uppercase;
      }
    </style>
  </defs>
  <g id="Camada_1-2" data-name="Camada 1">
    <g>
      <g>
        <path d="M224.36,131.57v263.15l227.89,131.57,227.89-131.57V131.57L452.26,0l-227.89,131.57ZM618.02,263.15c0,91.55-74.22,165.76-165.76,165.76s-165.76-74.22-165.76-165.76,74.22-165.76,165.76-165.76,165.76,74.22,165.76,165.76Z"/>
        <path d="M4.8,582l-4.8,2.82v19.72l4.8,2.82h33.58l4.8-2.82v-19.72l-4.8-2.82H4.8ZM33.58,601.72H9.59v-14.09h23.99v14.09Z"/>
        <path d="M148.35,582l-4.8,2.82v19.72l4.8,2.82h28.78l9.59-5.64v-2.82l-4.8-2.82v-2.82l4.8-2.82v-2.82l-9.59-5.64h-28.78ZM177.14,601.72h-23.99v-2.82l4.8-2.82h14.39l4.8,2.82v2.82ZM177.14,590.45l-4.8,2.82h-14.39l-4.8-2.82v-2.82h23.99v2.82Z"/>
        <polygon points="320.69 582 320.69 593.27 311.1 601.72 306.3 601.72 296.71 593.27 296.71 582 291.91 582 287.11 584.82 287.11 596.09 301.5 607.36 315.9 607.36 330.29 596.09 330.29 584.82 325.49 582 320.69 582"/>
        <polygon points="437.86 582 433.07 584.82 433.07 587.63 447.46 587.63 447.46 601.72 437.86 601.72 433.07 604.54 433.07 607.36 471.44 607.36 471.44 604.54 466.65 601.72 457.05 601.72 457.05 587.63 471.44 587.63 471.44 584.82 466.65 582 437.86 582"/>
        <path d="M579.02,582l-4.8,2.82v19.72l4.8,2.82h33.58l4.8-2.82v-19.72l-4.8-2.82h-33.58ZM607.81,601.72h-23.99v-14.09h23.99v14.09Z"/>
        <polygon points="751.36 582 751.36 601.72 727.38 601.72 727.38 582 722.58 582 717.78 584.82 717.78 604.54 722.58 607.36 756.16 607.36 760.96 604.54 760.96 584.82 756.16 582 751.36 582"/>
        <polygon points="904.51 587.63 904.51 584.82 899.24 582 866.13 582 861.34 584.82 861.34 593.27 866.13 596.09 890.12 596.09 894.92 598.9 894.92 601.72 866.13 601.72 861.34 604.54 861.34 607.36 899.72 607.36 904.51 604.54 904.51 596.09 899.72 593.27 875.73 593.27 870.93 590.45 870.93 587.63 904.51 587.63"/>
      </g>
      <text class="cls-1" transform="translate(342.6 686.67)"><tspan x="0" y="0">ENTERPRISES</tspan></text>
    </g>
  </g>
</svg>
