
<?xml version="1.0" encoding="UTF-8"?>
<svg id="Camada_2" data-name="Camada 2" xmlns="http://www.w3.org/2000/svg" viewBox="0 0 904.51 692.68">
  <g id="Camada_1-2" data-name="Camada 1">
    <g>
      <g>
        <path d="M224.36,131.57v263.15l227.89,131.57,227.89-131.57V131.57L452.26,0l-227.89,131.57ZM618.02,263.15c0,91.55-74.22,165.76-165.76,165.76s-165.76-74.22-165.76-165.76,74.22-165.76,165.76-165.76,165.76,74.22,165.76,165.76Z"/>
        <path d="M4.8,582l-4.8,2.82v19.72l4.8,2.82h33.58l4.8-2.82v-19.72l-4.8-2.82H4.8ZM33.58,601.72H9.59v-14.09h23.99v14.09Z"/>
        <path d="M148.35,582l-4.8,2.82v19.72l4.8,2.82h28.78l9.59-5.64v-2.82l-4.8-2.82v-2.82l4.8-2.82v-2.82l-9.59-5.64h-28.78ZM177.14,601.72h-23.99v-2.82l4.8-2.82h14.39l4.8,2.82v2.82ZM177.14,590.45l-4.8,2.82h-14.39l-4.8-2.82v-2.82h23.99v2.82Z"/>
        <polygon points="320.69 582 320.69 593.27 311.1 601.72 306.3 601.72 296.71 593.27 296.71 582 291.91 582 287.11 584.82 287.11 596.09 301.5 607.36 315.9 607.36 330.29 596.09 330.29 584.82 325.49 582 320.69 582"/>
        <polygon points="437.86 582 433.07 584.82 433.07 587.63 447.46 587.63 447.46 601.72 437.86 601.72 433.07 604.54 433.07 607.36 471.44 607.36 471.44 604.54 466.65 601.72 457.05 601.72 457.05 587.63 471.44 587.63 471.44 584.82 466.65 582 437.86 582"/>
        <path d="M579.02,582l-4.8,2.82v19.72l4.8,2.82h33.58l4.8-2.82v-19.72l-4.8-2.82h-33.58ZM607.81,601.72h-23.99v-14.09h23.99v14.09Z"/>
        <polygon points="751.36 582 751.36 601.72 727.38 601.72 727.38 582 722.58 582 717.78 584.82 717.78 604.54 722.58 607.36 756.16 607.36 760.96 604.54 760.96 584.82 756.16 582 751.36 582"/>
        <polygon points="904.51 587.63 904.51 584.82 899.24 582 866.13 582 861.34 584.82 861.34 593.27 866.13 596.09 890.12 596.09 894.92 598.9 894.92 601.72 866.13 601.72 861.34 604.54 861.34 607.36 899.72 607.36 904.51 604.54 904.51 596.09 899.72 593.27 875.73 593.27 870.93 590.45 870.93 587.63 904.51 587.63"/>
      </g>
      <!-- Convertendo o texto "ENTERPRISES" para paths -->
      <path d="M345.39,686.67v-18.21h12.21v2.39h-9.55v5.37h8.92v2.36h-8.92v5.69h9.55v2.39H345.39z"/>
      <path d="M366.31,686.67v-18.21h7.94c2.78,0,4.84,0.65,6.18,1.95c1.34,1.3,2.01,3.25,2.01,5.83c0,2.59-0.67,4.54-2.02,5.85
        c-1.35,1.31-3.41,1.96-6.18,1.96h-5.26v2.62H366.31z M368.98,680.76h5.33c1.87,0,3.24-0.43,4.11-1.29c0.87-0.86,1.31-2.15,1.31-3.89
        c0-1.72-0.44-3.01-1.31-3.86c-0.87-0.85-2.24-1.28-4.11-1.28h-5.33V680.76z"/>
      <path d="M388.99,686.67v-18.21h2.67v18.21H388.99z"/>
      <path d="M401.01,686.67v-18.21h12.21v2.39h-9.55v5.37h8.92v2.36h-8.92v5.69h9.55v2.39H401.01z"/>
      <path d="M419.64,686.67v-18.21h7.4c1.97,0,3.47,0.37,4.49,1.12c1.02,0.75,1.53,1.87,1.53,3.36c0,1.05-0.26,1.93-0.79,2.63
        c-0.53,0.7-1.28,1.19-2.27,1.48v0.14c1.24,0.18,2.18,0.64,2.83,1.38c0.65,0.74,0.98,1.7,0.98,2.88c0,1.61-0.55,2.85-1.65,3.73
        c-1.1,0.88-2.66,1.32-4.67,1.32H419.64z M422.31,676.25h4.91c1.19,0,2.1-0.24,2.72-0.73c0.62-0.49,0.93-1.21,0.93-2.16
        c0-0.96-0.31-1.67-0.93-2.13c-0.62-0.46-1.53-0.69-2.72-0.69h-4.91V676.25z M422.31,684.28h5.31c1.29,0,2.26-0.27,2.91-0.82
        c0.65-0.55,0.98-1.35,0.98-2.41c0-1.05-0.33-1.85-0.98-2.38c-0.65-0.53-1.62-0.8-2.91-0.8h-5.31V684.28z"/>
      <path d="M442.79,686.67v-18.21h7.65c2,0,3.53,0.41,4.59,1.23c1.06,0.82,1.59,2.03,1.59,3.63c0,1.11-0.28,2.05-0.85,2.81
        c-0.57,0.76-1.38,1.29-2.43,1.58v0.14c1.32,0.17,2.33,0.62,3.04,1.37c0.7,0.75,1.06,1.73,1.06,2.94c0,1.81-0.59,3.19-1.76,4.15
        c-1.17,0.96-2.84,1.44-5,1.44H442.79z M445.45,676.37h5.16c1.19,0,2.1-0.24,2.72-0.73c0.62-0.49,0.93-1.21,0.93-2.17
        c0-0.96-0.31-1.67-0.93-2.13c-0.62-0.46-1.53-0.69-2.72-0.69h-5.16V676.37z M445.45,684.28h5.49c1.3,0,2.29-0.27,2.95-0.82
        c0.67-0.55,1-1.35,1-2.41c0-1.05-0.33-1.85-1-2.38c-0.67-0.53-1.65-0.8-2.95-0.8h-5.49V684.28z"/>
      <path d="M466.35,686.67v-18.21h2.67v15.82h8.43v2.39H466.35z"/>
      <path d="M484.75,686.67v-18.21h2.67v18.21H484.75z"/>
      <path d="M494.75,686.67l8.06-18.21h2.94l8.06,18.21h-2.85l-2-4.79h-9.48l-2,4.79H494.75z M500.19,679.61h7.84l-3.92-9.3
        L500.19,679.61z"/>
      <path d="M520.38,686.67v-15.82h-6.38v-2.39h15.44v2.39h-6.38v15.82H520.38z"/>
      <path d="M535.83,686.67v-18.21h12.21v2.39h-9.55v5.37h8.92v2.36h-8.92v5.69h9.55v2.39H535.83z"/>
      <path d="M554.67,686.67v-18.21h2.83l10.37,14.43v-14.43h2.62v18.21h-2.83l-10.37-14.44v14.44H554.67z"/>
    </g>
  </g>
</svg>
